# xmcd CD database file
#
# Track frame offsets:
#	150
#	17595
#	44228
#	65623
#	90718
#	116793
#	139693
#	159368
#	182415
#	208443
#	227695
#	251883
#
# Disc length: 3600 seconds
#
# Revision: 0
# Processed by: cddbd v1.5.1PL0 Copyright (c) Steve Scherf et al.
# Submitted via: CDex 1.51
#
DISCID=ae0e0e0c
DTITLE=岩崎宏美 - Happiness
DYEAR=2004
DGENRE=JPop
TTITLE0=その瞬間(とき)から・・・
TTITLE1=また恋に落ちましたね
TTITLE2=幸せになろう
TTITLE3=Happiness
TTITLE4=哀しみの環状線
TTITLE5=ひととき
TTITLE6=手紙
TTITLE7=春の岸部で逢いましょう
TTITLE8=天気雨
TTITLE9=Now And Then
TTITLE10=同じ空の下で
TTITLE11=忘れないで-イッチマ-(「冬のソナタ」より)＜ボーナストラック＞
EXTD=YEAR: 2004
EXTT0=
EXTT1=
EXTT2=
EXTT3=
EXTT4=
EXTT5=
EXTT6=
EXTT7=
EXTT8=
EXTT9=
EXTT10=
EXTT11=
PLAYORDER=
